<svg width="39" height="38" viewBox="0 0 39 38" fill="none" xmlns="http://www.w3.org/2000/svg">
<path d="M33.12 5.46354C30.4059 2.85399 26.9483 1.0772 23.1843 0.357846C19.4204 -0.36151 15.5192 0.00887604 11.9742 1.42217C8.42906 2.83546 5.39927 5.22819 3.26789 8.29778C1.13651 11.3674 -0.000718409 14.976 3.40486e-07 18.6672C-3.11324e-07 23.618 2.04393 28.3662 5.68243 31.8678C9.32094 35.3694 14.2562 37.3379 19.4031 37.3404C21.9501 37.3414 24.4726 36.8625 26.8282 35.9307C29.1763 34.9773 31.3123 33.5991 33.12 31.8709C34.9229 30.1371 36.353 28.0787 37.3286 25.8132C38.3043 23.5476 38.8065 21.1195 38.8065 18.6672C38.8065 16.215 38.3043 13.7868 37.3286 11.5213C36.353 9.25581 34.9229 7.19737 33.12 5.46354ZM31.7523 30.5365C28.9582 33.2356 25.2919 34.9392 21.3571 35.3669V23.0371H25.0305C25.5488 23.0371 26.0458 22.8391 26.4122 22.4866C26.7787 22.1342 26.9845 21.6561 26.9845 21.1576C26.9845 20.6591 26.7787 20.1811 26.4122 19.8286C26.0458 19.4761 25.5488 19.2781 25.0305 19.2781H21.3571V14.1282C21.3571 13.6297 21.5629 13.1516 21.9294 12.7991C22.2958 12.4467 22.7928 12.2486 23.311 12.2486H25.6558C26.174 12.2486 26.6711 12.0506 27.0375 11.6981C27.4039 11.3457 27.6098 10.8676 27.6098 10.3691C27.6098 9.87063 27.4039 9.39256 27.0375 9.04008C26.6711 8.6876 26.174 8.48958 25.6558 8.48958H22.334C21.0385 8.48958 19.796 8.98464 18.8799 9.86584C17.9637 10.747 17.4491 11.9422 17.4491 13.1884V19.2781H13.7951C13.2769 19.2781 12.7799 19.4761 12.4135 19.8286C12.047 20.1811 11.8411 20.6591 11.8411 21.1576C11.8411 21.6561 12.047 22.1342 12.4135 22.4866C12.7799 22.8391 13.2769 23.0371 13.7951 23.0371H17.4491V35.3669C13.8203 34.9686 10.4133 33.4839 7.70935 31.1223C5.00536 28.7607 3.14106 25.6416 2.37976 22.2056C1.61846 18.7697 1.99865 15.1905 3.46662 11.9736C4.9346 8.75672 7.41617 6.06476 10.5608 4.27797C13.7054 2.49117 17.3542 1.69985 20.9917 2.01576C24.6292 2.33168 28.0716 3.73887 30.8327 6.03857C33.5937 8.33827 35.5338 11.4142 36.3791 14.832C37.2243 18.2498 36.9318 21.8366 35.543 25.0858C34.6584 27.1218 33.371 28.973 31.7523 30.5365Z" fill="#063776"/>
</svg>
