<svg width="40" height="39" viewBox="0 0 40 39" fill="none" xmlns="http://www.w3.org/2000/svg">
<path d="M34.4072 0H5.59284C4.1108 0.00399152 2.69064 0.574431 1.64267 1.58667C0.594704 2.59892 0.00413239 3.97067 0 5.40219V33.2343C0.00413239 34.6658 0.594704 36.0375 1.64267 37.0498C2.69064 38.062 4.1108 38.6325 5.59284 38.6365H34.4072C35.8905 38.6365 37.313 38.0673 38.3619 37.0542C39.4108 36.0411 40 34.667 40 33.2343V5.40219C40 3.96944 39.4108 2.59537 38.3619 1.58226C37.313 0.569158 35.8905 0 34.4072 0ZM37.7629 33.2343C37.7564 34.092 37.4008 34.9128 36.7729 35.5193C36.145 36.1259 35.2952 36.4694 34.4072 36.4756H5.59284C4.70484 36.4694 3.85504 36.1259 3.22712 35.5193C2.59919 34.9128 2.24358 34.092 2.23714 33.2343V5.40219C2.24358 4.54446 2.59919 3.72363 3.22712 3.11711C3.85504 2.51059 4.70484 2.1671 5.59284 2.16088H34.4072C35.2952 2.1671 36.145 2.51059 36.7729 3.11711C37.4008 3.72363 37.7564 4.54446 37.7629 5.40219V33.2343Z" fill="#063776"/>
<path d="M7.41846 16.6128C7.41846 16.0397 7.65416 15.4901 8.0737 15.0848C8.49324 14.6796 9.06227 14.4519 9.65559 14.4519C10.2489 14.4519 10.8179 14.6796 11.2375 15.0848C11.657 15.4901 11.8927 16.0397 11.8927 16.6128V30.6585C11.8927 31.2316 11.657 31.7812 11.2375 32.1864C10.8179 32.5917 10.2489 32.8193 9.65559 32.8193C9.06227 32.8193 8.49324 32.5917 8.0737 32.1864C7.65416 31.7812 7.41846 31.2316 7.41846 30.6585V16.6128Z" fill="#063776"/>
<path d="M9.65559 10.1216C10.8911 10.1216 11.8927 9.1541 11.8927 7.96068C11.8927 6.76726 10.8911 5.7998 9.65559 5.7998C8.42006 5.7998 7.41846 6.76726 7.41846 7.96068C7.41846 9.1541 8.42006 10.1216 9.65559 10.1216Z" fill="#063776"/>
<path d="M32.5724 22.2789V30.6631C32.5724 31.2362 32.3367 31.7859 31.9172 32.1911C31.4977 32.5964 30.9286 32.824 30.3353 32.824C29.742 32.824 29.173 32.5964 28.7534 32.1911C28.3339 31.7859 28.0982 31.2362 28.0982 30.6631V22.2789C28.0982 21.3534 27.7175 20.4657 27.04 19.8113C26.3624 19.1568 25.4434 18.7891 24.4852 18.7891C23.527 18.7891 22.608 19.1568 21.9304 19.8113C21.2529 20.4657 20.8722 21.3534 20.8722 22.2789V30.6631C20.8722 31.2362 20.6365 31.7859 20.217 32.1911C19.7974 32.5964 19.2284 32.824 18.6351 32.824C18.0418 32.824 17.4727 32.5964 17.0532 32.1911C16.6336 31.7859 16.3979 31.2362 16.3979 30.6631V16.6174C16.4072 16.0471 16.6458 15.5027 17.0634 15.0993C17.481 14.696 18.0446 14.4655 18.6351 14.4566C19.014 14.4465 19.3887 14.5356 19.7195 14.7144C20.0503 14.8932 20.3249 15.155 20.5143 15.4722C21.7443 14.7981 23.1361 14.4478 24.5502 14.4566C25.9644 14.4653 27.3515 14.8327 28.5724 15.5219C29.7934 16.2112 30.8056 17.1981 31.5076 18.3839C32.2096 19.5698 32.5768 20.9129 32.5724 22.2789Z" fill="#063776"/>
</svg>
