<svg width="40" height="39" viewBox="0 0 40 39" fill="none" xmlns="http://www.w3.org/2000/svg">
<path d="M33.5813 38.2588H5.46074C4.01246 38.2588 2.6235 37.695 1.59941 36.6915C0.575326 35.6879 0 34.3268 0 32.9076V5.35118C0 3.93196 0.575326 2.57086 1.59941 1.56732C2.6235 0.563783 4.01246 0 5.46074 0H33.5813C35.0296 0 36.4186 0.563783 37.4427 1.56732C38.4668 2.57086 39.0421 3.93196 39.0421 5.35118V32.9076C39.0421 34.3268 38.4668 35.6879 37.4427 36.6915C36.4186 37.695 35.0296 38.2588 33.5813 38.2588ZM5.46074 2.14047C4.59177 2.14047 3.75839 2.47874 3.14394 3.08087C2.52949 3.68299 2.1843 4.49965 2.1843 5.35118V32.9076C2.1843 33.7591 2.52949 34.5758 3.14394 35.1779C3.75839 35.78 4.59177 36.1183 5.46074 36.1183H33.5813C34.4503 36.1183 35.2837 35.78 35.8981 35.1779C36.5126 34.5758 36.8578 33.7591 36.8578 32.9076V5.35118C36.8578 4.49965 36.5126 3.68299 35.8981 3.08087C35.2837 2.47874 34.4503 2.14047 33.5813 2.14047H5.46074Z" fill="#063776"/>
<path d="M19.521 28.9624C17.5363 28.9603 15.5968 28.3816 13.9476 27.2995C12.2985 26.2174 11.0137 24.6804 10.2558 22.8829C9.49787 21.0854 9.30079 19.1081 9.68947 17.2008C10.0782 15.2936 11.0351 13.5421 12.4395 12.1677C13.8438 10.7934 15.6324 9.85785 17.5792 9.47945C19.526 9.10106 21.5436 9.29676 23.3769 10.0418C25.2102 10.7869 26.777 12.0479 27.8791 13.6653C28.9812 15.2828 29.5692 17.1842 29.5688 19.1291C29.5653 21.7382 28.5052 24.2394 26.6212 26.0831C24.7373 27.9268 22.1836 28.9624 19.521 28.9624ZM19.521 11.4234C17.9689 11.4255 16.4522 11.8784 15.1625 12.7247C13.8728 13.5711 12.8681 14.773 12.2751 16.1786C11.6821 17.5842 11.5275 19.1306 11.8308 20.6222C12.1342 22.1139 12.8818 23.4841 13.9794 24.5596C15.0769 25.6351 16.4751 26.3678 17.9973 26.665C19.5196 26.9623 21.0975 26.8108 22.5319 26.2297C23.9664 25.6486 25.1929 24.664 26.0566 23.4002C26.9202 22.1364 27.3823 20.6501 27.3845 19.1291C27.3845 17.0854 26.556 15.1255 25.0813 13.6804C23.6067 12.2353 21.6066 11.4234 19.521 11.4234Z" fill="#063776"/>
<path d="M30.8791 10.3642C32.176 10.3642 33.2272 9.33402 33.2272 8.06321C33.2272 6.7924 32.176 5.76221 30.8791 5.76221C29.5823 5.76221 28.531 6.7924 28.531 8.06321C28.531 9.33402 29.5823 10.3642 30.8791 10.3642Z" fill="#063776"/>
</svg>
