<?xml version="1.0" encoding="UTF-8"?>
<svg width="489px" height="444px" viewBox="0 0 489 444" version="1.1" xmlns="http://www.w3.org/2000/svg" xmlns:xlink="http://www.w3.org/1999/xlink">
    <!-- Generator: Sketch 52.6 (67491) - http://www.bohemiancoding.com/sketch -->
    <title>wiesoc-logo</title>
    <desc>Created with Sketch.</desc>
    <g id="Page-1" stroke="none" stroke-width="1" fill="none" fill-rule="evenodd">
        <g id="wiesoc-logo" fill="#93AED3">
            <path d="M100.2,364.8 C101.5,363 102.9,361.2 104.1,359.4 C111.7,348.5 116.8,336.6 119,323.6 C120.4,315.1 120.7,306.7 118.3,298.3 C117.7,296.2 116.9,294.2 115.6,292.4 C114,290.1 111.9,289.3 109.2,289.9 C107.2,290.3 105.4,291.1 103.7,292.3 C102.1,293.5 100.5,294.8 99,296.1 C91.1,303.3 81.8,307.2 71.4,308.9 C65.2,309.9 59,310.3 52.7,310.4 C49.7,310.4 46.9,309.6 44.5,307.9 C36.7,302.3 33.1,294.7 33.8,285.2 C34,281.7 34.8,278.4 36.5,275.4 C37.1,274.2 37.6,273 37.7,271.6 C38,269 37.3,266.9 35.5,265.1 C34.5,264.1 33.4,263.2 32.4,262.1 C29.6,259.2 29.8,256.4 32.9,253.9 C33.6,253.3 34.3,252.8 35,252.2 C35.8,251.5 36.3,250.6 36.4,249.5 C36.6,247.9 36.1,246.9 34.5,246.4 C33.6,246.1 32.8,246 31.9,245.8 C27.7,245 25.8,242.9 25.5,238.7 C25.4,237.1 25.4,235.4 25.2,233.8 C24.6,229.2 22.4,225.7 18.8,222.9 C16.7,221.3 14.4,220.1 12.1,218.9 C9.7,217.7 7.3,216.5 5.1,215 C2.5,213.2 0.7,210.8 0.2,207.6 C-0.1,205.5 0.3,203.6 1.1,201.7 C2.2,199.1 3.8,196.7 5.5,194.4 C8.2,190.6 11.1,187 13.6,183.1 C16.8,178.2 19.5,173.1 20.7,167.3 C21.8,161.9 21.8,156.4 20.4,151.1 C17.7,141.5 17.3,131.6 17.7,121.8 C18,112.8 20.3,104.1 23.5,95.7 C41.3,49.1 74.2,19 122.6,6.2 C133.9,3.2 145.4,1.7 157.1,1.2 C163.9,0.9 170.7,0.9 177.5,1.3 C178.8,1.8 194,3.2 198.5,3.9 C200.6,4.2 202.7,5 204.8,5 C208,5.9 211.3,6.8 214.5,7.7 C225.8,10.8 236.4,15.4 246.7,20.8 C251.3,23.2 255.9,25.8 260.2,28.7 C263.9,31.2 267.1,34.2 270.4,37.1 C279.1,44.9 288.3,51.9 298.2,58.2 C310.8,66.2 324.1,72.7 338.1,77.8 C353,83.2 368.3,86.9 384.1,88.8 C398.8,90.6 413.4,90.8 428.1,89.6 C435.1,89 442.1,88.4 449,87.7 C457.4,86.9 465.7,85.8 474,84.4 C478.4,83.7 482.7,82.4 487.1,81.8 C487.1,82 487.2,82.2 487.2,82.5 C486.7,83.6 485.6,83.8 484.8,84.3 C479.5,87.3 473.8,89.3 468,90.9 C457.5,93.8 446.9,95.4 436.1,96.4 C417.8,98.1 399.6,98.2 381.3,97.2 C362.4,96.2 343.7,93.7 325.6,87.9 C313.2,84 301.7,78.4 290.8,71.2 C282.4,65.7 274.6,59.3 266.6,53.1 C257,45.7 246.7,39.4 235.7,34.2 C218.1,25.9 199.6,20.9 180.3,18.9 C171.3,18 162.2,17.6 153.2,18.4 C129.1,20.5 106.3,26.8 86.1,40.7 C68.3,52.9 55.1,69 45.5,88.1 C37.6,103.7 32.6,120.3 30,137.6 C29.6,140.4 29.4,143.2 29.1,146.1 C28.8,148.9 29.4,151.6 30.5,154.2 C31.2,155.7 31.9,157.2 32.7,158.6 C35.3,163 35.5,167.7 34.6,172.7 C33.5,178.4 31.1,183.5 27.9,188.2 C25.1,192.3 21.6,196 18.2,199.6 C16.7,201.2 15.2,202.8 13.8,204.4 C13.1,205.2 12.5,206.1 12,207 C11,208.8 11.2,210.4 12.6,211.9 C13.6,213 14.9,213.8 16.2,214.5 C18.6,215.8 21.1,217 23.6,218.2 C25.5,219.1 27.3,220.2 28.9,221.5 C30.5,222.9 31.4,224.6 31.4,226.7 C31.4,229.6 31.7,232.5 32.4,235.3 C33.6,239.7 36.3,242.8 40.8,244.1 C41.3,244.2 41.8,244.4 42.3,244.6 C44.7,245.5 45.3,246.9 44.3,249.4 C43.7,250.9 42.6,252 41.5,253.1 C40.4,254.1 39.2,255.1 38.2,256.1 C36.2,258.2 36.4,259.8 38.7,261.5 C39.8,262.3 41.1,263.1 42.2,263.9 C44.7,265.8 45.7,268.2 45.3,271.3 C44.8,275.1 44.2,279 44.5,282.9 C45,288.2 47.7,291.8 52.7,293.6 C55.1,294.5 57.6,294.9 60.1,295.1 C69.9,295.6 79.2,293.7 88.2,289.9 C92.2,288.2 96.1,286.4 100,284.6 C103.6,283 107.2,281.6 111,281 C111.2,281 111.4,280.9 111.7,280.9 C116.7,279.9 120.4,281.7 123.1,286 C125.8,290.4 127.4,295.2 128.6,300.1 C131.2,310.4 132.5,320.9 132.9,331.5 C133,333.5 132.4,335.1 131.1,336.5 C127.3,340.6 123.4,344.4 119.4,348.2 C113.8,353.5 108.2,358.7 102.5,363.9 C102.1,364.3 101.6,364.6 101.1,365 C100.8,364.9 100.5,364.9 100.2,364.8 Z" id="Path"></path>
            <path d="M213.9,243.1 C212.8,241 211.7,239.3 210.3,237.7 C208.8,236 207,234.7 204.9,233.8 C198.7,231.1 192.5,233.7 190,240 C188.6,243.4 188.6,247 189.3,250.6 C189.7,252.4 189.7,252.4 187.9,252.8 C184.3,253.6 180.7,254.1 177.1,254.6 C176,254.8 175.6,254.5 175.5,253.3 C175.2,249.7 174.1,246.3 171.9,243.4 C167.2,237.4 159.7,237.1 154.5,242.7 C152,245.4 150.6,248.7 150.1,252.3 C149.9,253.5 149.7,253.9 148.3,253.6 C145.5,252.9 142.6,252.4 139.8,251.6 C137.8,251.1 137.9,251.1 138.4,249.2 C139.2,246 139.4,242.7 138.5,239.5 C136.6,232.4 129.9,229.1 123.1,232 C119.9,233.4 117.5,235.6 115.6,238.5 C115.1,239.2 114.9,240 114.2,240.5 C111.4,239.1 105.2,234.7 102.7,232.3 C103.4,231.3 104.2,230.3 104.9,229.3 C106.5,226.9 107.5,224.3 107.9,221.4 C108.8,213.8 103,208 95.3,208.9 C92,209.3 89.1,210.5 86.4,212.4 C85.9,212.7 85.5,213.1 84.9,213.5 C82.5,210.4 80.6,207.1 78.6,203.9 C78.1,203.1 78.5,202.8 79.2,202.4 C82.2,200.8 84.8,198.7 86.6,195.7 C88,193.4 88.8,191 88.6,188.3 C88.1,183.5 85.4,180.6 81.1,178.9 C77.6,177.5 73.9,177.6 70.3,178.6 C69.1,178.9 68.8,178.6 68.5,177.5 C67.6,173.6 67,169.7 66.5,165.8 C66.3,164.4 66.4,164.3 67.9,164.2 C71.8,163.9 75.3,162.7 78.3,160.1 C83.5,155.5 83.8,148.7 79,143.7 C76.5,141.1 73.4,139.6 69.8,138.9 C69.3,138.8 68.8,138.7 68.3,138.6 C67.5,138.5 67.3,138.2 67.4,137.4 C67.9,135.3 68.3,133.2 68.8,131.1 C69.2,129.6 69.4,128 70.1,126.6 C70.9,126.3 71.5,126.9 72.2,127 C75.4,127.9 78.7,128.1 81.9,127.3 C89.6,125.3 92.9,117.7 89.1,110.8 C87.6,108 85.4,105.7 82.7,104 C82,103.6 81.3,103.1 80.6,102.6 C83.1,98.4 85.9,94.6 88.9,91 C89.8,91.3 90.2,91.9 90.8,92.4 C93.8,94.7 97.1,96.3 101,96.5 C108.1,96.8 113.1,91.6 112.6,84.5 C112.4,81 111.1,77.8 109.1,75 C108.7,74.5 108.2,74 108,73.2 C111.3,70.8 114.7,68.6 118.4,66.7 C119.2,68.3 119.9,69.8 120.9,71.1 C122.6,73.4 124.7,75.3 127.4,76.5 C133.5,79.3 139.8,76.8 142.4,70.7 C143.9,67.1 144,63.3 143.1,59.5 C142.9,58.9 142.6,58.2 142.7,57.4 C147.3,56.2 152,55.5 156.8,55 C157.1,57 157.2,58.8 157.7,60.6 C158.6,63.4 159.9,66 162.1,68 C166.6,72.1 172.6,72.1 177.1,67.9 C180,65.3 181.5,62 182.3,58.2 C182.4,57.5 182.4,56.7 182.9,55.9 C186.8,56.4 190.6,57.4 194.4,58.5 C195.2,58.7 195.3,59.1 195,59.8 C194.3,61.6 193.9,63.5 193.9,65.5 C193.8,68 194.1,70.4 195.1,72.7 C197.6,78.4 203.3,80.8 209.2,78.6 C212.7,77.3 215.3,74.9 217.4,71.9 C217.9,71.2 218.3,70.4 219,69.4 C223.1,71.9 226.9,74.7 230.6,77.8 C229.8,78.9 229,79.8 228.3,80.7 C226.3,83.6 225.1,86.8 225.1,90.3 C225.1,96.7 230,101.4 236.5,101.3 C240,101.2 243.2,100.1 246.2,98.1 C246.8,97.7 247.4,97.2 248,96.8 C249.7,98.4 253.3,104 254.7,107.3 C254.3,108 253.5,108.1 252.8,108.5 C249.4,110.5 246.6,113.1 245,116.9 C242.5,122.9 244.9,128.8 250.8,131.4 C254.5,133 258.3,133.1 262.2,132.2 C264,131.8 264,131.8 264.4,133.5 C265.2,136.9 265.7,140.2 266.1,143.7 C266.3,145.4 266.7,145.7 264.4,145.8 C261.2,146 258.3,147 255.6,148.9 C248.7,153.6 248.3,161.9 254.7,167.3 C257.3,169.5 260.4,170.7 263.8,171.3 C265.3,171.6 265.3,171.6 265.1,173.1 C264.6,176.1 263.9,179.1 263,182 C262.4,183.9 262.8,184.2 260.5,183.5 C257.3,182.5 254,182.4 250.8,183.3 C243.3,185.4 240.1,192.6 243.7,199.5 C245.3,202.6 247.6,204.9 250.6,206.7 C252,207.6 251.8,207.6 251,208.9 C248.7,212.4 246.3,215.8 243.5,219 C242,217.8 240.6,216.7 239,215.8 C235.5,214 231.9,213.1 228,214.2 C223.7,215.4 221.2,218.4 220.5,222.8 C219.8,227.2 221,231.1 223.4,234.7 C223.6,235 223.8,235.3 224.1,235.6 C224.8,236.3 224.6,236.8 223.8,237.3 C221.4,238.9 219,240.5 216.4,242 C215.6,242.2 214.9,242.6 213.9,243.1 Z M166.3,231.6 C208.7,231.8 244.7,197.3 244.9,153.1 C245.1,110.8 211.2,74.6 166.9,74.3 C123.5,74 88.5,108.9 87.9,151.9 C87.3,195.8 122.7,231.7 166.3,231.6 Z" id="Shape" fill-rule="nonzero"></path>
            <path d="M253.6,306 C255,304.1 256.4,302.1 257.9,300.2 C258.5,299.4 258.5,298.8 257.9,298.1 C257.2,297.2 256.6,296.3 256,295.3 C255,293.8 255,293.8 253.2,294.2 C251.4,294.6 249.6,295 247.8,295.5 C247,295.7 246.6,295.5 246.2,294.8 C245.7,293.6 245.2,292.3 244.6,291.1 C244.2,290.3 244.3,289.8 245.1,289.3 C246.7,288.3 248.2,287.2 249.7,286.1 C251.1,285.1 251.1,285.1 250.6,283.4 C250.5,283 250.4,282.5 250.2,282.1 C249.8,281.1 250.1,279.6 249.1,279 C248.2,278.5 246.9,278.6 245.8,278.5 C244.5,278.4 243.3,278.3 242,278.2 C241.1,278.2 240.7,277.8 240.6,276.9 C240.5,275.5 240.3,274.1 240.1,272.7 C240,271.9 240.4,271.7 241,271.5 C242.9,271 244.7,270.3 246.6,269.8 C247.8,269.5 248.3,268.9 248.2,267.6 C248.1,266.5 248.2,265.4 248.3,264.3 C248.5,263.2 248.1,262.7 247.1,262.3 C245.2,261.6 243.4,260.8 241.5,260 C240.7,259.7 240.3,259.3 240.6,258.3 C241.1,256.7 241,254.9 241.9,253.4 C243.5,253.4 245,253.4 246.6,253.3 C247.8,253.3 249.1,253.8 250.1,253.1 C251,252.5 251,251.1 251.4,250.1 C252.5,247.3 252.4,247.3 250.2,245.4 C249,244.4 247.8,243.3 246.6,242.3 C246,241.8 245.9,241.4 246.4,240.8 C246.5,240.7 246.5,240.5 246.6,240.4 C247.4,239.1 247.9,237.2 249.1,236.6 C250.3,236 252,237.3 253.5,237.7 C254.6,238 255.8,238.8 256.9,238.7 C258,238.6 258.5,237 259.2,236.1 C261.1,233.8 261.1,233.8 259.5,231.3 C258.9,230.3 258.3,229.3 257.6,228.2 C256.5,226.4 256.5,226.4 258.1,225 C259.1,224.1 259.9,222.6 261.2,222.5 C262.4,222.4 263.4,223.9 264.5,224.6 C265.7,225.4 266.8,227 268.2,226.9 C269.4,226.8 270.6,225.5 271.7,224.7 C273.4,223.6 273.4,223.6 273,221.6 C272.6,219.9 272.2,218.3 271.8,216.6 C271.6,215.7 271.6,215.1 272.7,214.7 C274.2,214.1 275.7,213.5 277.2,212.8 C278.4,213.8 279.1,215.3 280,216.5 C280.7,217.4 281.1,218.8 282.2,219.3 C283.3,219.8 284.4,218.8 285.6,218.5 C288.5,217.7 288.5,217.7 288.7,214.8 C288.8,213.3 289,211.8 289,210.3 C289,209.5 289.4,209.1 290.2,209 C291.5,208.9 292.9,208.8 294.2,208.6 C295.2,208.4 295.5,208.9 295.8,209.7 C296.4,211.6 297,213.5 297.5,215.5 C297.7,216.4 298.1,216.7 299,216.7 C300.4,216.7 301.8,216.7 303.2,216.9 C304.1,217 304.4,216.6 304.7,215.9 C305.5,214 306.3,212.1 307.1,210.1 C307.5,209.2 308,208.8 309,209.2 C310.5,209.7 312.7,209.3 313.6,210.5 C314.4,211.6 313.7,213.5 313.8,215.1 C313.8,216.3 313.4,217.7 314,218.6 C314.6,219.5 316,219.5 317,219.8 C319.9,220.9 319.9,220.9 321.9,218.5 C322.8,217.4 323.8,216.4 324.7,215.3 C325.3,214.6 325.8,214.4 326.6,214.9 C328,215.9 329.7,216.4 330.9,217.6 C330.4,219.1 330,220.6 329.5,222.1 C328.4,225.4 328.3,225.4 331.1,227.6 C331.9,228.2 332.6,229.2 333.4,229.2 C334.3,229.2 335.2,228.3 336.1,227.8 C337.4,227 338.7,226.3 339.9,225.5 C340.5,225.1 341,225.1 341.4,225.7 C341.4,225.8 341.5,225.8 341.5,225.9 C342.5,227.2 344.4,228.2 344.6,229.6 C344.8,231.1 342.9,232.2 342,233.6 C341.4,234.6 340.1,235.4 340.1,236.5 C340.1,237.6 341.2,238.4 341.8,239.3 C343.4,241.8 343.5,241.8 346.5,241.1 C347.7,240.8 348.8,240.5 350,240.3 C351.8,239.9 351.9,239.9 352.6,241.7 C353.2,243 354.4,244.3 354.1,245.6 C353.8,246.9 352,247.3 350.9,248.2 C349.9,249 348.3,249.5 347.8,250.6 C347.3,251.8 348.3,253.1 348.6,254.4 C349.2,256.8 349.2,256.8 351.8,257.1 C353.4,257.2 354.9,257.3 356.5,257.4 C357.5,257.4 358,257.8 358,258.9 C358,260.2 358.2,261.4 358.4,262.7 C358.6,263.6 358.2,264 357.3,264.3 C355.4,264.8 353.6,265.5 351.7,266 C350.7,266.3 350.1,266.7 350.3,267.8 C350.4,268.5 350.3,269.3 350.3,270 C350.2,272.9 350.2,272.9 353,274.1 C354.4,274.7 355.7,275.3 357.1,275.8 C357.9,276.1 358.1,276.6 357.9,277.4 C357.5,279 357.6,281 356.6,282.1 C355.6,283.2 353.5,282.3 351.9,282.5 C350.7,282.6 349.2,282 348.4,282.7 C347.6,283.4 347.5,284.8 347,285.9 C346,288.6 346,288.6 348.2,290.4 C349.3,291.4 350.4,292.4 351.6,293.3 C352.3,293.9 352.5,294.4 351.9,295.2 C351,296.6 350.5,298.6 349.3,299.2 C348,299.9 346.3,298.4 344.7,298 C343.6,297.7 342.4,296.8 341.3,297.1 C340.3,297.4 339.9,298.7 339.2,299.6 C338.6,300.3 337.6,301.1 337.5,301.9 C337.4,302.7 338.3,303.6 338.8,304.4 C339.6,305.7 340.4,307.1 341.3,308.4 C341.7,309 341.7,309.4 341.1,309.9 C340,310.8 339,311.8 338,312.8 C337.3,313.5 336.8,313.3 336.1,312.8 C334.5,311.6 332.9,310.4 331.3,309.2 C330.6,308.6 330.1,308.6 329.4,309.2 C328.3,310 327.2,310.8 326.1,311.5 C325.2,312 325.1,312.6 325.3,313.5 C325.8,315.5 326.2,317.4 326.7,319.4 C326.9,320.3 326.8,320.8 325.9,321.1 C324.4,321.7 322.9,323.1 321.4,322.9 C319.9,322.7 319.5,320.6 318.5,319.4 C317.7,318.4 317.3,316.9 316.1,316.5 C315,316.1 313.8,317 312.7,317.3 C310.1,318 310,318 309.8,320.7 C309.7,322.2 309.5,323.7 309.5,325.2 C309.5,326.4 308.9,326.7 307.8,326.8 C306.7,326.8 305.6,327 304.5,327.2 C303.5,327.4 302.9,327.2 302.6,326 C302.1,324.1 301.5,322.3 300.9,320.4 C300.6,319.5 300.2,319 299.2,319.1 C298.2,319.2 297.3,319.1 296.3,319.1 C294,319 294,319 293.1,321.1 C292.4,322.7 291.8,324.3 291.1,325.9 C290.8,326.7 290.4,326.9 289.6,326.7 C288.3,326.4 287,326.1 285.7,325.9 C284.8,325.7 284.5,325.3 284.5,324.4 C284.6,322.6 284.6,320.8 284.6,319 C284.6,317.1 284.6,317.1 282.7,316.4 C282.3,316.3 282,316.2 281.6,316 C280.6,315.7 279.7,314.8 278.7,315.1 C277.5,315.4 277,316.7 276.2,317.6 C275.3,318.5 274.5,319.5 273.7,320.5 C273.1,321.2 272.6,321.4 271.8,320.9 C271.4,320.6 270.9,320.4 270.5,320.1 C269.5,319.4 267.9,319.2 267.7,318.1 C267.5,317.1 268.3,315.9 268.6,314.7 C269,313.5 269.4,312.3 269.8,311.1 C270.1,310.4 269.9,310 269.3,309.6 C268.9,309.3 268.5,309 268,308.7 C267,307.9 266.1,306.6 265,306.5 C263.7,306.3 262.6,307.7 261.3,308.4 C260.1,309.1 258.8,310.5 257.7,310.4 C256.4,310.3 255.6,308.5 254.6,307.4 C254.4,307 254,306.5 253.6,306 Z M337.6,281.8 C341.2,270.9 340.8,260.6 336,250.3 C335.2,250.8 334.6,251.1 334.1,251.5 C328.3,255.3 322.5,259.1 316.7,262.9 C315.1,263.9 313.6,264.9 312,266 C310.8,266.8 310.9,267.3 312.1,268.1 C312.4,268.3 312.6,268.4 312.9,268.5 C316.8,270.6 320.8,272.7 324.7,274.9 C328.9,277.2 333.1,279.4 337.6,281.8 Z M305.6,308.2 C316.8,306.1 325.5,300.7 332.3,291.8 C323.7,287.2 315.5,282.8 307.2,278.3 C307,278.2 306.8,278.1 306.6,278 C305.8,277.8 305.3,278.1 305.1,278.9 C305,279.3 305.1,279.8 305.1,280.2 C305.2,285.9 305.2,291.5 305.3,297.2 C305.4,300.8 305.5,304.4 305.6,308.2 Z M262.2,284.9 C262.7,284.6 263,284.4 263.3,284.2 C270,279.8 276.6,275.4 283.3,271.1 C284.4,270.4 285.6,269.7 286.7,268.9 C287.6,268.3 287.5,267.8 286.6,267.2 C286.2,266.9 285.7,266.7 285.2,266.4 C277.7,262.3 270.1,258.3 262.6,254.2 C262.2,254 261.8,253.5 261,253.8 C257.3,264.3 257.7,274.6 262.2,284.9 Z M266.6,243.7 C275.2,248.3 283.5,252.8 291.8,257.3 C293.2,258 293.4,257.8 293.4,256.2 C293.3,247.2 293.1,238.3 292.9,229.3 C292.9,227.6 292.8,227.6 291.2,227.9 C285.7,229 280.5,231.2 275.9,234.5 C272.4,237 269.2,239.9 266.6,243.7 Z M268.6,294.6 C274.3,301.6 283.9,306.9 292.7,308.1 C294.3,308.3 294.3,308.3 294.3,306.7 C294.2,297.7 294,288.8 293.8,279.8 C293.8,279.3 293.9,278.7 293.2,278.3 C285.1,283.7 276.9,289.1 268.6,294.6 Z M329.5,240.8 C323.6,234 314.4,228.9 306.1,227.8 C304.2,227.5 304.2,227.5 304.2,229.3 C304.3,235.7 304.4,242.1 304.5,248.5 C304.5,251.2 304.6,254 304.7,257 C313.1,251.6 321.3,246.2 329.5,240.8 Z" id="Shape" fill-rule="nonzero"></path>
            <path d="M69.3,369.9 C74.5,369.9 79.2,370 83.9,369.9 C85.3,369.9 85.5,370.7 85.8,371.6 C89.8,381.3 93.7,391.1 97.7,400.8 C98,401.5 98.1,402.2 98.8,402.9 C103.2,392 107.6,381.3 112.2,370 C116.8,381.2 121.2,392 125.6,402.9 C126.4,402.2 126.5,401.3 126.8,400.6 C130.7,391 134.6,381.4 138.5,371.8 C139.2,370 139.2,370 141.2,370 C145.7,370 150.3,370 155.1,370 C145.3,394.5 135.6,418.8 125.7,443.5 C121.1,432.1 116.7,421 112.3,410 C112.2,410 112,410 111.9,409.9 C107.6,420.9 103.2,431.9 98.7,443.5 C88.8,418.7 79.1,394.4 69.3,369.9 Z" id="Path"></path>
            <path d="M318.2,443.4 C299.3,443.9 281.4,427.5 281.5,406.7 C281.6,386.4 298,370 318.3,369.9 C339.1,369.8 355.2,387.8 355.1,406.9 C355,426.6 337.9,444 318.2,443.4 Z M340.3,406.9 C340.4,394.8 330.7,384.9 318.7,384.6 C306.6,384.3 296.4,394.5 296.3,406.3 C296.2,418.6 305.8,428.5 318.1,428.6 C330.4,428.8 340.2,419.2 340.3,406.9 Z" id="Shape" fill-rule="nonzero"></path>
            <path d="M180.7,406.6 C180.7,395.3 180.7,383.9 180.7,372.6 C180.7,372.1 180.7,371.6 180.7,371 C180.7,370.3 180.9,369.9 181.7,369.9 C182.1,369.9 182.6,369.9 183,369.9 C196.1,369.9 209.3,369.9 222.4,369.9 C222.7,369.9 223,369.9 223.3,369.9 C224.5,369.7 224.8,370.3 224.8,371.4 C224.8,375.3 224.8,379.2 224.8,383 C224.8,384.5 224.8,384.5 223.1,384.5 C215,384.5 206.8,384.5 198.7,384.5 C198.3,384.5 198,384.5 197.6,384.5 C195.2,384.5 195.4,384.3 195.4,386.7 C195.4,390.4 195.4,394 195.4,397.7 C195.4,399.3 195.4,399.3 197,399.3 C203.2,399.3 209.4,399.3 215.6,399.3 C217.5,399.3 217.4,399.2 217.4,401.1 C217.4,404.8 217.4,408.4 217.4,412.1 C217.4,414.3 217.3,414 215.4,414 C209.4,414 203.3,414 197.3,414 C195.4,414 195.4,413.9 195.4,415.8 C195.4,419.5 195.4,423.3 195.4,427 C195.4,428.5 195.4,428.6 197,428.6 C205.3,428.6 213.6,428.6 221.9,428.6 C225.3,428.6 224.8,428.2 224.8,431.6 C224.8,434.9 224.8,438.2 224.8,441.5 C224.8,443.3 224.8,443.3 223,443.4 C217.5,443.4 211.9,443.4 206.4,443.4 C198.4,443.4 190.4,443.4 182.4,443.4 C180.6,443.4 180.6,443.4 180.6,441.6 C180.7,429.9 180.7,418.3 180.7,406.6 Z" id="Path"></path>
            <path d="M411.7,391 C401.5,381.4 387.3,383.4 379.6,392 C372.2,400.3 372.3,413.6 380,421.8 C387.8,430.1 402.1,431.5 411.7,422.3 C414.9,425.5 418.1,428.7 421.3,431.9 C422.2,432.8 421.4,433.2 420.9,433.7 C416.4,437.8 411.3,440.8 405.4,442.3 C381.3,448.3 364.4,431.7 360.6,416.6 C354.3,391.8 371.7,374.5 387.2,371 C399.8,368.2 411,371.1 420.7,379.6 C422,380.7 422,380.8 420.8,382 C417.8,385 414.8,388 411.7,391 Z" id="Path"></path>
            <path d="M261,392 C260.8,391.1 260.7,390.5 260.5,389.8 C259.5,386.7 256.6,384.6 253.4,384.7 C250.3,384.7 247.5,386.8 246.6,389.9 C245.6,393.2 246.7,396.1 249.5,398.1 C251.8,399.7 254.4,400.6 257,401.4 C262.3,402.9 267,405.5 270.9,409.5 C274.1,412.8 275.5,416.8 275.5,421.3 C275.6,432.2 267.2,442.1 256.5,443.4 C245.1,444.8 234.7,437.8 232,426.8 C231.7,425.5 231.6,424.2 231.4,422.8 C231.3,421.9 231.5,421.4 232.5,421.4 C237,421.4 241.4,421.4 245.9,421.4 C246.1,422.2 246.2,422.8 246.4,423.5 C247.6,427.6 252,429.8 256,428.3 C260.1,426.7 261.9,422 260,418.1 C259.3,416.7 258.1,415.8 256.7,415.3 C254,414.3 251.2,413.4 248.5,412.4 C243.5,410.6 239.2,407.8 235.6,403.8 C232.6,400.4 231.3,396.4 231.3,391.9 C231.4,381.8 238.6,372.8 248.5,370.6 C261.7,367.6 274.4,377.1 275.4,390.6 C275.5,392.1 275.5,392.1 274,392.1 C269.7,392 265.4,392 261,392 Z" id="Path"></path>
            <path d="M347.1,156.8 C348.9,157.3 350.8,157.7 352.5,158.2 C353.3,158.4 353.9,158.4 354.4,157.6 C355.4,155.9 356.6,154.4 358.1,153.1 C358.9,152.3 358.8,151.6 358.3,150.8 C357.5,149.4 356.9,147.8 356.1,146.4 C355.7,145.6 355.6,145.1 356.5,144.5 C358,143.5 359.6,142.4 361,141.2 C361.7,140.7 362.1,140.8 362.7,141.4 C363.9,142.7 365.3,143.9 366.5,145.2 C367.1,145.8 367.6,146 368.4,145.5 C370.2,144.6 372.1,143.9 374,143.3 C374.8,143.1 375.1,142.7 375.1,141.9 C375.1,140.1 375.4,138.3 375.4,136.5 C375.4,135.6 375.8,135.2 376.7,135.1 C378.5,135 380.3,134.8 382,134.6 C382.9,134.5 383.4,134.7 383.6,135.7 C384,137.4 384.5,139 384.9,140.7 C385.1,141.6 385.6,142 386.6,142.1 C388.5,142.2 390.5,142.5 392.3,143 C393.2,143.3 393.7,143 394.1,142.2 C395,140.7 396.1,139.2 397,137.7 C397.4,137 397.8,136.8 398.6,137.2 C400.3,138 402,138.8 403.7,139.5 C404.6,139.9 404.7,140.5 404.5,141.3 C404.1,142.9 403.7,144.5 403.2,146 C402.9,147 403,147.6 403.9,148.2 C405.5,149.2 407,150.4 408.2,151.7 C409,152.6 409.6,152.4 410.5,151.9 C411.9,151.1 413.4,150.5 414.9,149.7 C415.7,149.3 416.2,149.2 416.7,150.1 C417.7,151.7 418.8,153.2 420,154.6 C420.5,155.3 420.5,155.7 419.9,156.3 C418.6,157.5 417.4,158.9 416.1,160.1 C415.4,160.8 415.3,161.4 415.8,162.2 C416.7,163.8 417.3,165.5 417.7,167.2 C418,168.5 418.7,168.8 419.9,168.9 C421.5,168.9 423,169.1 424.6,169.1 C425.5,169.1 425.9,169.4 426,170.4 C426.1,172.3 426.3,174.1 426.6,176 C426.7,176.8 426.4,177.2 425.6,177.4 C423.9,177.8 422.3,178.3 420.6,178.7 C419.7,178.9 419.2,179.3 419.2,180.3 C419.1,182.2 418.8,184.2 418.3,186 C418,187 418.4,187.5 419.2,188 C420.6,188.9 421.9,189.9 423.3,190.7 C424.3,191.3 424.4,191.9 423.9,192.9 C423.1,194.4 422.4,196 421.8,197.6 C421.5,198.4 421.1,198.7 420.1,198.4 C418.4,197.8 416.6,197.5 414.9,197 C414.2,196.8 413.7,196.9 413.2,197.6 C412.1,199.4 410.7,201 409.2,202.5 C408.6,203.1 408.7,203.6 409,204.3 C409.8,205.8 410.5,207.4 411.3,208.9 C411.8,209.8 411.8,210.3 410.9,210.9 C409.4,211.9 408,213 406.6,214.1 C405.9,214.7 405.4,214.6 404.7,214 C403.5,212.7 402.1,211.5 400.9,210.2 C400.4,209.6 399.9,209.5 399.2,209.9 C397.4,210.8 395.5,211.6 393.6,212.1 C392.8,212.3 392.4,212.8 392.4,213.7 C392.3,215.5 392.2,217.3 392.1,219.1 C392.1,219.9 391.7,220.3 390.9,220.3 C389,220.5 387.2,220.6 385.3,220.9 C384.5,221 384.1,220.7 383.9,219.9 C383.5,218.2 382.9,216.6 382.6,214.9 C382.4,213.9 382,213.5 381,213.4 C379,213.3 377,213 375.1,212.4 C374.3,212.2 373.9,212.5 373.5,213.1 C372.6,214.5 371.5,215.9 370.7,217.4 C370.1,218.4 369.5,218.5 368.5,218 C367,217.2 365.4,216.5 363.8,215.9 C362.9,215.5 362.7,215 363,214.2 C363.5,212.5 363.9,210.7 364.4,209 C364.6,208.2 364.5,207.8 363.8,207.3 C362.1,206.1 360.4,204.8 359,203.3 C358.5,202.8 358,202.8 357.4,203.1 C355.8,204 354,204.7 352.4,205.6 C351.7,206 351.2,205.9 350.7,205.2 C349.6,203.6 348.5,202 347.3,200.5 C346.8,199.9 346.9,199.5 347.5,199 C348.8,197.7 350,196.4 351.3,195.2 C352,194.5 352.2,194 351.7,193.1 C350.8,191.4 350.1,189.6 349.6,187.7 C349.4,186.8 348.8,186.5 348,186.5 C346.4,186.4 344.7,186.3 343.1,186.3 C341.8,186.3 341.4,185.8 341.4,184.6 C341.3,182.9 341.1,181.2 340.9,179.5 C340.8,178.6 341.1,178.3 341.9,178.1 C343.6,177.7 345.3,177.1 347.1,176.7 C347.9,176.5 348.4,176.2 348.4,175.2 C348.4,173.2 348.8,171.2 349.3,169.2 C349.5,168.4 349.3,167.9 348.7,167.5 C347.3,166.6 345.9,165.6 344.4,164.7 C343.5,164.1 343.1,163.6 343.7,162.6 C344.5,161 345.2,159.4 345.9,157.7 C346.1,156.9 346.3,156.4 347.1,156.8 Z M383.8,145.6 C365.8,145.7 351.7,160 351.8,178.1 C351.9,195.4 366.7,209.9 384,209.6 C401.8,209.3 416,195 415.9,177.4 C415.7,159.8 401.3,145.5 383.8,145.6 Z" id="Shape" fill-rule="nonzero"></path>
            <path d="M158.3,406.6 C158.3,395.3 158.3,383.9 158.3,372.6 C158.3,372.1 158.3,371.6 158.3,371 C158.3,370.3 158.6,369.9 159.3,369.9 C163.6,369.9 167.8,369.9 172.1,369.9 C172.7,369.9 173.1,370.2 173.1,370.8 C173.1,371.3 173.1,371.8 173.1,372.4 C173.1,395.3 173.1,418.2 173.1,441.1 C173.1,441.5 173.1,442 173.1,442.4 C173.1,443.1 172.9,443.3 172.2,443.3 C167.9,443.3 163.5,443.3 159.2,443.3 C158.5,443.3 158.3,442.9 158.3,442.3 C158.3,441.8 158.3,441.3 158.3,440.7 C158.3,429.4 158.3,418 158.3,406.6 Z" id="Path"></path>
            <path d="M100.2,364.8 C100.5,364.8 100.7,364.9 101,364.9 C100.6,365.8 99.5,366 99.3,367 C99.3,367 99.3,367 99.3,367 C98.9,366.9 98.6,366.7 98.9,366.3 C99.3,365.9 99.8,365.4 100.2,364.8 Z" id="Path"></path>
            <path d="M94.4,154.8 C94.5,113.1 129,81.1 169.1,82.6 C208,84 239.1,116.1 238.6,155.4 C238.2,196.7 204.1,227.9 164.8,227 C125.6,226.1 94.4,193.9 94.4,154.8 Z M151,154.7 C151,163.6 157.8,170.4 166.8,170.3 C173.9,170.3 182,164.3 182,154.7 C182,146.3 175,139.3 166.6,139.3 C158,139.2 151,146.1 151,154.7 Z M199.1,200 C199.9,200 200.3,199.5 200.7,199.1 C208.8,192.8 214.8,184.8 218.6,175.2 C219.1,174.1 220.1,172.7 219.5,171.7 C219,170.8 217.3,171 216.2,170.7 C216.1,170.7 216.1,170.7 216,170.6 C208.8,168.9 201.5,167.2 194.3,165.4 C193.2,165.1 192.7,165.3 192.3,166.4 C190.8,169.9 188.5,173 185.6,175.6 C184.8,176.3 184.8,176.8 185.4,177.6 C187.4,180.8 189.4,184.1 191.4,187.3 C193.9,191.6 196.5,195.8 199.1,200 Z M166.4,210.8 C170.1,210.9 173.6,210.5 177.1,209.8 C182,208.9 186.6,207.3 191.1,205.1 C192,204.7 192.2,204.3 191.6,203.4 C190.8,202.2 190,200.9 189.2,199.6 C185.6,193.8 182,187.9 178.4,182.1 C178,181.4 177.8,180.6 176.6,181.1 C172.9,182.6 169,183.2 165,183 C164,182.9 163.7,183.3 163.5,184.2 C161.6,192.4 159.6,200.6 157.6,208.8 C157.3,210 157.7,210.2 158.7,210.3 C161.4,210.7 164,210.9 166.4,210.8 Z M221.7,163.5 C224.1,152.2 221,136.3 215.9,128.9 C208.5,133.5 201.1,138.1 193.6,142.6 C192.7,143.2 192.7,143.7 193,144.6 C194.3,148.1 194.9,151.6 194.8,155.3 C194.8,157 194.8,157 196.5,157.5 C201.5,158.7 206.5,159.9 211.5,161.1 C214.9,161.9 218.2,162.7 221.7,163.5 Z M121.2,187.3 C121.3,188.1 121.7,188.4 122,188.8 C125.8,193.8 130.3,198 135.5,201.5 C139.4,204.1 143.6,206.2 148.1,207.8 C149,208.1 149.4,208.1 149.7,207.1 C151.6,198.9 153.6,190.7 155.5,182.5 C155.7,181.5 155.5,181 154.6,180.6 C151.2,179.1 148.3,177 145.7,174.3 C144.5,173 144.4,173 143,173.9 C137.2,177.5 131.3,181.1 125.5,184.7 C124,185.6 122.6,186.4 121.2,187.3 Z M211.7,121.8 C204.7,111.7 194,104.8 184.5,101.6 C183.4,101.2 183.2,101.8 183,102.6 C181.1,110.6 179.2,118.7 177.3,126.7 C177.1,127.7 177.3,128.2 178.2,128.6 C181.7,130.1 184.8,132.4 187.4,135.2 C188.2,136.1 188.8,136 189.6,135.4 C194,132.6 198.5,129.9 202.9,127.2 C205.7,125.4 208.6,123.6 211.7,121.8 Z M116.7,180.3 C124.3,175.6 131.7,171 139.1,166.5 C140.1,165.9 140.1,165.2 139.7,164.3 C138.4,160.9 137.9,157.4 138,153.8 C138,152 138,152 136.4,151.6 C131.3,150.4 126.3,149.2 121.2,148 C118,147.2 114.8,146.5 111.4,145.7 C109.4,157.9 111.2,169.3 116.7,180.3 Z M140.8,105 C145.4,112.5 149.9,119.8 154.4,127.1 C154.9,127.9 155.3,128.3 156.3,127.9 C159.9,126.5 163.6,125.8 167.5,126.1 C168.6,126.2 169,125.8 169.3,124.7 C171.1,116.8 173,108.9 174.9,101 C175.3,99.4 175.3,99.3 173.5,99.1 C166.1,98.1 158.8,98.7 151.6,100.7 C147.9,101.8 144.3,103.1 140.8,105 Z M113.3,137.5 C113.7,137.7 113.9,137.8 114.1,137.8 C122.3,139.8 130.5,141.7 138.6,143.7 C139.7,144 140,143.6 140.4,142.7 C142,139.2 144.2,136.1 147.1,133.6 C148,132.8 147.8,132.2 147.3,131.4 C143.1,124.6 138.9,117.7 134.6,110.9 C134.3,110.4 134.2,109.8 133.4,109.6 C123.8,116.8 117.1,126 113.3,137.5 Z" id="Shape" fill-rule="nonzero"></path>
            <path d="M413.3,177.7 C413.3,194 400,207.2 383.8,207.1 C367.3,207.1 354.3,193.8 354.3,177.1 C354.3,161.1 367.7,147.9 384,148 C400.2,148.1 413.4,161.4 413.3,177.7 Z M383.9,162.8 C375.6,162.8 368.9,169.4 368.9,177.6 C368.9,185.8 375.5,192.4 383.7,192.5 C391.9,192.6 398.7,185.9 398.7,177.6 C398.8,169.6 392.1,162.8 383.9,162.8 Z M406,169.7 C402.9,169.8 400.3,172.5 400.4,175.5 C400.5,178.6 403.2,181.2 406.3,181 C409.3,180.9 411.8,178.3 411.8,175.3 C411.7,172.2 409.1,169.6 406,169.7 Z M386.1,205.5 C389.3,205.5 391.8,203.1 391.8,199.9 C391.8,196.8 389.2,194.2 386.1,194.2 C383.1,194.2 380.6,196.7 380.5,199.8 C380.4,203 382.9,205.5 386.1,205.5 Z M406.7,191.7 C406.7,188.6 404.1,186.1 400.9,186.1 C397.9,186.1 395.4,188.6 395.3,191.7 C395.2,194.8 397.8,197.4 401,197.4 C404.2,197.4 406.7,194.9 406.7,191.7 Z M381.4,149.7 C378.2,149.7 375.8,152.3 375.9,155.5 C376,158.6 378.4,161 381.5,161 C384.6,161 387.2,158.5 387.2,155.3 C387.2,152.3 384.6,149.7 381.4,149.7 Z M403.4,160.2 C403.4,157.1 400.8,154.6 397.7,154.6 C394.7,154.6 392.2,157.2 392.2,160.2 C392.2,163.4 394.7,165.9 397.8,165.9 C400.9,166 403.4,163.4 403.4,160.2 Z M361.6,174.3 C358.4,174.3 355.9,176.8 355.9,180 C355.9,183.1 358.6,185.7 361.7,185.7 C364.8,185.7 367.3,183.1 367.3,179.9 C367.2,176.8 364.7,174.3 361.6,174.3 Z M375.2,195 C375.2,191.9 372.7,189.3 369.5,189.3 C366.4,189.3 363.8,191.9 363.9,195.1 C363.9,198.2 366.4,200.6 369.5,200.6 C372.7,200.7 375.2,198.2 375.2,195 Z M366.3,157.9 C363.2,157.9 360.7,160.5 360.7,163.7 C360.7,166.9 363.3,169.3 366.5,169.2 C369.5,169.1 372,166.6 372,163.6 C372,160.4 369.4,157.9 366.3,157.9 Z" id="Shape" fill-rule="nonzero"></path>
            <path d="M104.2,362.2 C104.2,362.2 97,369.6 96.6,369.4 C96.6,369.4 96.5,369.5 96.4,369.3 C96.4,369.3 102.5,361.9 103.1,360.8 L104.2,362.2 Z" id="Path"></path>
            <path d="M177.5,1.1 C177.5,1.1 196.8,2.5 204.8,4.7 L196.6,7.3 L177.5,1.1 Z" id="Path"></path>
            <path d="M484.8,81.9 C484.8,81.9 487,81.8 488.7,81.1 C488.7,81.1 488.3,82.2 484.6,84 L484.8,81.9 Z" id="Path"></path>
        </g>
    </g>
</svg>