<svg width="605" height="161" xmlns="http://www.w3.org/2000/svg" xmlns:xlink="http://www.w3.org/1999/xlink" xml:space="preserve" overflow="hidden"><g><path d="M260.002 249.794 260.002 247.66C260.002 247.289 259.723 247.011 259.352 247.011L230.494 247.011C229.752 247.011 229.38 247.196 228.916 247.66 225.298 251.558 222.607 256.754 222.607 263.528 222.607 269.745 224.37 275.219 229.009 280.508 239.866 292.757 263.528 299.438 272.621 306.954 276.054 309.831 278.189 312.985 278.189 316.697 278.189 324.956 272.343 331.173 254.805 331.173 244.505 331.173 235.876 329.317 224.741 326.904 224.277 326.811 224.184 327.09 224.184 327.368L224.184 344.72C224.184 345.277 224.37 345.37 224.741 345.555 234.669 348.988 246.825 351.215 257.96 351.215 285.241 351.215 303.521 336.926 303.521 315.584 303.521 305.933 299.623 298.51 292.664 292.2 282.55 283.014 265.569 277.075 255.919 271.229 252.578 269.188 248.403 266.033 248.403 260.465 248.588 256.011 251.372 251.465 260.002 249.794" fill="#D42F34" transform="matrix(1 0 0 1.00172 0 -219.78)"/><path d="M384.62 349.452C382.672 349.916 375.898 351.215 366.99 351.215 340.452 351.215 327.368 339.245 327.368 312.8L327.368 266.961 297.582 266.961C297.211 266.961 296.932 266.775 296.84 266.404L293.499 247.66C293.406 247.289 293.592 247.104 294.056 247.104L384.62 247.104C384.992 247.104 385.27 247.382 385.27 247.753L385.27 266.497C385.27 266.868 384.992 267.146 384.62 267.146L352.051 267.146 352.051 313.449C352.051 326.626 358.639 332.008 373.3 332.008 379.331 332.008 383.136 331.544 384.62 331.358 384.992 331.265 385.177 331.451 385.177 331.915L385.177 348.988C385.177 349.174 385.084 349.36 384.62 349.452" fill="#D42F34" transform="matrix(1 0 0 1.00172 0 -219.78)"/><path d="M470.081 247.011C467.947 246.64 460.06 245.433 450.224 245.433 425.634 245.433 405.591 255.548 405.591 284.591L405.591 348.988C405.591 349.36 405.87 349.638 406.241 349.638L429.624 349.638C429.995 349.638 430.274 349.36 430.274 348.988L430.274 285.426C430.274 272.714 437.233 265.105 455.884 265.105 461.452 265.105 467.669 265.662 470.081 265.94 470.452 265.94 470.731 265.847 470.731 265.476L470.731 247.846C470.638 247.382 470.545 247.104 470.081 247.011" fill="#D42F34" transform="matrix(1 0 0 1.00172 0 -219.78)"/><path d="M564.914 285.983C560.182 259.166 547.469 245.433 522.88 245.433 498.383 245.433 485.577 259.166 480.845 285.983 480.845 285.983 469.803 348.617 469.71 349.081 469.617 349.545 469.896 349.638 470.267 349.638L493.743 349.638C494.207 349.638 494.393 349.452 494.485 349.081 494.578 348.617 498.754 324.956 498.754 324.956L534.107 324.956C534.479 324.956 534.757 324.77 534.85 324.399L538.19 305.655C538.283 305.284 538.097 305.098 537.633 305.098L502.28 305.098 505.62 286.076C507.847 273.456 511.095 265.383 522.88 265.383 534.664 265.383 538.005 273.456 540.139 286.076 540.139 286.076 551.181 348.71 551.274 349.174 551.367 349.638 551.552 349.731 552.016 349.731L575.492 349.731C575.771 349.731 576.049 349.638 576.049 349.174 575.956 348.617 564.914 285.983 564.914 285.983" fill="#D42F34" transform="matrix(1 0 0 1.00172 0 -219.78)"/><path d="M172.221 349.638C172.592 349.638 172.87 349.36 172.87 348.988L172.87 320.316C192.078 316.604 201.172 303.335 205.069 280.972L210.915 247.567C211.008 247.196 210.822 247.011 210.358 247.011L187.439 247.011C186.975 247.011 186.789 247.196 186.696 247.567L180.85 280.972C178.623 293.592 172.685 302.036 160.9 302.036 149.116 302.036 143.177 293.592 140.95 280.972L135.104 247.567C135.012 247.104 134.826 247.011 134.362 247.011L111.35 247.011C110.979 247.011 110.793 247.196 110.793 247.567L116.639 280.972C120.536 303.335 129.63 316.604 148.837 320.316L148.837 348.988C148.837 349.36 149.116 349.638 149.487 349.638" fill="#D42F34" transform="matrix(1 0 0 1.00172 0 -219.78)"/><path d="M68.0161 296.376C51.7776 288.674 45.0038 284.498 45.0038 277.632 45.0038 269.652 50.3857 265.383 65.5107 265.383 73.5836 265.383 84.533 266.682 93.5337 268.724 93.9049 268.817 94.0905 268.724 94.0905 268.26L94.0905 250.815C94.0905 250.444 93.9977 250.166 93.5337 250.073 83.3267 247.196 74.6043 245.526 62.6342 245.526 34.9824 245.526 19.3006 258.981 19.3006 277.91 19.3006 286.169 22.0844 292.85 27.7446 298.696 38.7868 310.202 62.727 317.625 70.5215 325.048 74.0475 328.389 75.0683 331.451 75.0683 334.699 75.0683 342.586 69.1296 345.926 62.263 347.225 61.7991 347.318 61.2423 347.411 60.6856 347.504L60.6856 349.174C60.6856 349.545 60.964 349.824 61.3351 349.824L93.1626 349.824C93.9977 349.824 94.2761 349.638 94.74 349.174 98.4517 345.091 100.771 337.946 100.771 332.564 100.771 319.388 94.2761 308.81 68.0161 296.376" fill="#D42F34" transform="matrix(1 0 0 1.00172 0 -219.78)"/></g></svg>